<svg width="1128" height="504" viewBox="0 0 1128 504" fill="none" xmlns="http://www.w3.org/2000/svg">
<path d="M1127 252C1127 286.47 1111.37 319.383 1082.95 349.402C1054.53 379.427 1013.36 406.511 962.4 429.278C860.492 474.811 719.637 503 564 503C408.363 503 267.508 474.811 165.6 429.278C114.644 406.511 73.4702 379.427 45.0481 349.402C16.6311 319.383 1 286.47 1 252C1 217.53 16.6311 184.617 45.0481 154.598C73.4702 124.573 114.644 97.4893 165.6 74.7221C267.508 29.1887 408.363 1 564 1C719.637 1 860.492 29.1887 962.4 74.7221C1013.36 97.4893 1054.53 124.573 1082.95 154.598C1111.37 184.617 1127 217.53 1127 252Z" stroke="black" stroke-width="2"/>
<path d="M193.585 221V133.727H228.017C234.636 133.727 240.276 134.991 244.935 137.52C249.594 140.02 253.145 143.5 255.588 147.96C258.06 152.392 259.295 157.506 259.295 163.301C259.295 169.097 258.045 174.21 255.545 178.642C253.045 183.074 249.423 186.526 244.679 188.997C239.963 191.469 234.253 192.705 227.548 192.705H205.602V177.918H224.565C228.116 177.918 231.043 177.307 233.344 176.085C235.673 174.835 237.406 173.116 238.543 170.929C239.707 168.713 240.29 166.17 240.29 163.301C240.29 160.403 239.707 157.875 238.543 155.716C237.406 153.528 235.673 151.838 233.344 150.645C231.014 149.423 228.06 148.812 224.48 148.812H212.037V221H193.585ZM299.714 222.278C292.982 222.278 287.186 220.915 282.328 218.188C277.499 215.432 273.777 211.54 271.163 206.511C268.55 201.455 267.243 195.474 267.243 188.571C267.243 181.838 268.55 175.929 271.163 170.844C273.777 165.759 277.456 161.795 282.2 158.955C286.973 156.114 292.57 154.693 298.99 154.693C303.308 154.693 307.328 155.389 311.05 156.781C314.8 158.145 318.067 160.205 320.851 162.96C323.663 165.716 325.851 169.182 327.413 173.358C328.976 177.506 329.757 182.364 329.757 187.932V192.918H274.487V181.668H312.669C312.669 179.054 312.101 176.739 310.964 174.722C309.828 172.705 308.251 171.128 306.234 169.991C304.246 168.827 301.93 168.244 299.288 168.244C296.533 168.244 294.089 168.884 291.959 170.162C289.857 171.412 288.209 173.102 287.016 175.233C285.822 177.335 285.212 179.679 285.183 182.264V192.96C285.183 196.199 285.78 198.997 286.973 201.355C288.195 203.713 289.913 205.531 292.129 206.81C294.345 208.088 296.973 208.727 300.013 208.727C302.03 208.727 303.876 208.443 305.553 207.875C307.229 207.307 308.663 206.455 309.857 205.318C311.05 204.182 311.959 202.79 312.584 201.142L329.374 202.25C328.521 206.284 326.774 209.807 324.132 212.818C321.518 215.801 318.138 218.131 313.99 219.807C309.871 221.455 305.112 222.278 299.714 222.278ZM359.757 183.159V221H341.604V155.545H358.905V167.094H359.672C361.121 163.287 363.55 160.276 366.959 158.06C370.368 155.815 374.501 154.693 379.359 154.693C383.905 154.693 387.868 155.688 391.249 157.676C394.629 159.665 397.257 162.506 399.132 166.199C401.007 169.864 401.945 174.239 401.945 179.324V221H383.791V182.562C383.82 178.557 382.797 175.432 380.723 173.188C378.649 170.915 375.794 169.778 372.158 169.778C369.714 169.778 367.555 170.304 365.68 171.355C363.834 172.406 362.385 173.94 361.334 175.957C360.311 177.946 359.786 180.347 359.757 183.159ZM470.712 174.21L454.093 175.233C453.809 173.812 453.198 172.534 452.261 171.398C451.323 170.233 450.087 169.31 448.553 168.628C447.048 167.918 445.244 167.562 443.141 167.562C440.329 167.562 437.957 168.159 436.025 169.352C434.093 170.517 433.127 172.08 433.127 174.04C433.127 175.602 433.752 176.923 435.002 178.003C436.252 179.082 438.397 179.949 441.437 180.602L453.283 182.989C459.647 184.295 464.391 186.398 467.516 189.295C470.641 192.193 472.204 196 472.204 200.716C472.204 205.006 470.94 208.77 468.411 212.009C465.911 215.247 462.474 217.776 458.099 219.594C453.752 221.384 448.738 222.278 443.056 222.278C434.391 222.278 427.488 220.474 422.346 216.866C417.232 213.23 414.235 208.287 413.354 202.037L431.21 201.099C431.749 203.741 433.056 205.759 435.13 207.151C437.204 208.514 439.86 209.196 443.099 209.196C446.281 209.196 448.837 208.585 450.769 207.364C452.729 206.114 453.724 204.509 453.752 202.548C453.724 200.901 453.028 199.551 451.664 198.5C450.3 197.42 448.198 196.597 445.357 196.028L434.022 193.77C427.63 192.491 422.871 190.276 419.746 187.122C416.65 183.969 415.102 179.949 415.102 175.062C415.102 170.858 416.238 167.236 418.511 164.196C420.812 161.156 424.036 158.812 428.184 157.165C432.36 155.517 437.246 154.693 442.843 154.693C451.11 154.693 457.616 156.44 462.36 159.935C467.133 163.429 469.917 168.187 470.712 174.21ZM502.3 222.236C498.124 222.236 494.402 221.511 491.135 220.062C487.868 218.585 485.283 216.412 483.379 213.543C481.504 210.645 480.567 207.037 480.567 202.719C480.567 199.082 481.234 196.028 482.57 193.557C483.905 191.085 485.723 189.097 488.024 187.591C490.325 186.085 492.939 184.949 495.865 184.182C498.82 183.415 501.916 182.875 505.155 182.562C508.962 182.165 512.03 181.795 514.359 181.455C516.689 181.085 518.379 180.545 519.43 179.835C520.482 179.125 521.007 178.074 521.007 176.682V176.426C521.007 173.727 520.155 171.639 518.45 170.162C516.774 168.685 514.388 167.946 511.291 167.946C508.024 167.946 505.425 168.67 503.493 170.119C501.561 171.54 500.283 173.33 499.658 175.489L482.868 174.125C483.72 170.148 485.396 166.71 487.896 163.812C490.396 160.886 493.621 158.642 497.57 157.08C501.547 155.489 506.149 154.693 511.376 154.693C515.013 154.693 518.493 155.119 521.817 155.972C525.169 156.824 528.138 158.145 530.723 159.935C533.337 161.724 535.396 164.026 536.902 166.838C538.408 169.622 539.161 172.96 539.161 176.852V221H521.945V211.923H521.433C520.382 213.969 518.976 215.773 517.214 217.335C515.453 218.869 513.337 220.077 510.865 220.957C508.393 221.81 505.538 222.236 502.3 222.236ZM507.499 209.707C510.169 209.707 512.527 209.182 514.572 208.131C516.618 207.051 518.223 205.602 519.388 203.784C520.553 201.966 521.135 199.906 521.135 197.605V190.659C520.567 191.028 519.786 191.369 518.791 191.682C517.825 191.966 516.732 192.236 515.51 192.491C514.288 192.719 513.067 192.932 511.845 193.131C510.624 193.301 509.516 193.457 508.521 193.599C506.391 193.912 504.53 194.409 502.939 195.091C501.348 195.773 500.112 196.696 499.232 197.861C498.351 198.997 497.911 200.418 497.911 202.122C497.911 204.594 498.805 206.483 500.595 207.79C502.413 209.068 504.714 209.707 507.499 209.707ZM553.244 221V155.545H570.545V167.094H571.312C572.676 163.259 574.949 160.233 578.131 158.017C581.312 155.801 585.119 154.693 589.551 154.693C594.04 154.693 597.861 155.815 601.014 158.06C604.168 160.276 606.27 163.287 607.321 167.094H608.003C609.338 163.344 611.753 160.347 615.247 158.102C618.77 155.83 622.932 154.693 627.733 154.693C633.841 154.693 638.798 156.639 642.605 160.531C646.44 164.395 648.358 169.878 648.358 176.98V221H630.247V180.56C630.247 176.923 629.281 174.196 627.349 172.378C625.418 170.56 623.003 169.651 620.105 169.651C616.81 169.651 614.239 170.702 612.392 172.804C610.545 174.878 609.622 177.619 609.622 181.028V221H592.023V180.176C592.023 176.966 591.099 174.409 589.253 172.506C587.435 170.602 585.034 169.651 582.051 169.651C580.034 169.651 578.216 170.162 576.597 171.185C575.006 172.179 573.741 173.585 572.804 175.403C571.866 177.193 571.398 179.295 571.398 181.71V221H553.244ZM692.527 222.278C685.794 222.278 679.999 220.915 675.141 218.188C670.311 215.432 666.589 211.54 663.976 206.511C661.362 201.455 660.055 195.474 660.055 188.571C660.055 181.838 661.362 175.929 663.976 170.844C666.589 165.759 670.268 161.795 675.013 158.955C679.786 156.114 685.382 154.693 691.803 154.693C696.121 154.693 700.141 155.389 703.862 156.781C707.612 158.145 710.879 160.205 713.663 162.96C716.476 165.716 718.663 169.182 720.226 173.358C721.788 177.506 722.57 182.364 722.57 187.932V192.918H667.3V181.668H705.482C705.482 179.054 704.913 176.739 703.777 174.722C702.641 172.705 701.064 171.128 699.047 169.991C697.058 168.827 694.743 168.244 692.101 168.244C689.345 168.244 686.902 168.884 684.771 170.162C682.669 171.412 681.021 173.102 679.828 175.233C678.635 177.335 678.024 179.679 677.996 182.264V192.96C677.996 196.199 678.592 198.997 679.786 201.355C681.007 203.713 682.726 205.531 684.942 206.81C687.158 208.088 689.786 208.727 692.825 208.727C694.842 208.727 696.689 208.443 698.365 207.875C700.041 207.307 701.476 206.455 702.669 205.318C703.862 204.182 704.771 202.79 705.396 201.142L722.186 202.25C721.334 206.284 719.587 209.807 716.945 212.818C714.331 215.801 710.95 218.131 706.803 219.807C702.683 221.455 697.925 222.278 692.527 222.278ZM752.57 183.159V221H734.416V155.545H751.717V167.094H752.484C753.933 163.287 756.362 160.276 759.771 158.06C763.18 155.815 767.314 154.693 772.172 154.693C776.717 154.693 780.68 155.688 784.061 157.676C787.442 159.665 790.07 162.506 791.945 166.199C793.82 169.864 794.757 174.239 794.757 179.324V221H776.604V182.562C776.632 178.557 775.609 175.432 773.536 173.188C771.462 170.915 768.607 169.778 764.97 169.778C762.527 169.778 760.368 170.304 758.493 171.355C756.646 172.406 755.197 173.94 754.146 175.957C753.124 177.946 752.598 180.347 752.57 183.159ZM843.88 155.545V169.182H804.462V155.545H843.88ZM813.411 139.864H831.565V200.886C831.565 202.562 831.82 203.869 832.332 204.807C832.843 205.716 833.553 206.355 834.462 206.724C835.4 207.094 836.479 207.278 837.701 207.278C838.553 207.278 839.406 207.207 840.258 207.065C841.11 206.895 841.763 206.767 842.218 206.682L845.073 220.19C844.164 220.474 842.886 220.801 841.238 221.17C839.59 221.568 837.587 221.81 835.229 221.895C830.854 222.065 827.019 221.483 823.724 220.148C820.457 218.812 817.914 216.739 816.096 213.926C814.278 211.114 813.383 207.562 813.411 203.273V139.864ZM884.576 222.278C877.957 222.278 872.232 220.872 867.403 218.06C862.602 215.219 858.894 211.27 856.281 206.213C853.667 201.128 852.36 195.233 852.36 188.528C852.36 181.767 853.667 175.858 856.281 170.801C858.894 165.716 862.602 161.767 867.403 158.955C872.232 156.114 877.957 154.693 884.576 154.693C891.195 154.693 896.906 156.114 901.707 158.955C906.536 161.767 910.258 165.716 912.871 170.801C915.485 175.858 916.792 181.767 916.792 188.528C916.792 195.233 915.485 201.128 912.871 206.213C910.258 211.27 906.536 215.219 901.707 218.06C896.906 220.872 891.195 222.278 884.576 222.278ZM884.661 208.216C887.673 208.216 890.187 207.364 892.204 205.659C894.221 203.926 895.741 201.568 896.763 198.585C897.815 195.602 898.34 192.207 898.34 188.401C898.34 184.594 897.815 181.199 896.763 178.216C895.741 175.233 894.221 172.875 892.204 171.142C890.187 169.409 887.673 168.543 884.661 168.543C881.621 168.543 879.065 169.409 876.991 171.142C874.945 172.875 873.397 175.233 872.346 178.216C871.323 181.199 870.812 184.594 870.812 188.401C870.812 192.207 871.323 195.602 872.346 198.585C873.397 201.568 874.945 203.926 876.991 205.659C879.065 207.364 881.621 208.216 884.661 208.216Z" fill="white"/>
<path d="M201.588 313.281H182.923C182.582 310.866 181.886 308.722 180.835 306.847C179.784 304.943 178.435 303.324 176.787 301.989C175.139 300.653 173.236 299.631 171.077 298.92C168.946 298.21 166.631 297.855 164.131 297.855C159.614 297.855 155.679 298.977 152.327 301.222C148.974 303.437 146.375 306.676 144.528 310.938C142.682 315.17 141.759 320.312 141.759 326.364C141.759 332.585 142.682 337.812 144.528 342.045C146.403 346.278 149.017 349.474 152.369 351.634C155.722 353.793 159.599 354.872 164.003 354.872C166.474 354.872 168.761 354.545 170.864 353.892C172.994 353.239 174.884 352.287 176.531 351.037C178.179 349.759 179.543 348.21 180.622 346.392C181.73 344.574 182.497 342.5 182.923 340.17L201.588 340.256C201.105 344.261 199.898 348.125 197.966 351.847C196.063 355.54 193.491 358.849 190.253 361.776C187.043 364.673 183.207 366.974 178.747 368.679C174.315 370.355 169.301 371.193 163.705 371.193C155.92 371.193 148.96 369.432 142.824 365.909C136.716 362.386 131.886 357.287 128.335 350.611C124.812 343.935 123.051 335.852 123.051 326.364C123.051 316.847 124.841 308.75 128.42 302.074C132 295.398 136.858 290.312 142.994 286.818C149.131 283.295 156.034 281.534 163.705 281.534C168.761 281.534 173.449 282.244 177.767 283.665C182.114 285.085 185.963 287.159 189.315 289.886C192.668 292.585 195.395 295.895 197.497 299.815C199.628 303.736 200.991 308.224 201.588 313.281ZM244.053 371.278C237.433 371.278 231.709 369.872 226.879 367.06C222.078 364.219 218.371 360.27 215.757 355.213C213.143 350.128 211.837 344.233 211.837 337.528C211.837 330.767 213.143 324.858 215.757 319.801C218.371 314.716 222.078 310.767 226.879 307.955C231.709 305.114 237.433 303.693 244.053 303.693C250.672 303.693 256.382 305.114 261.183 307.955C266.013 310.767 269.734 314.716 272.348 319.801C274.962 324.858 276.268 330.767 276.268 337.528C276.268 344.233 274.962 350.128 272.348 355.213C269.734 360.27 266.013 364.219 261.183 367.06C256.382 369.872 250.672 371.278 244.053 371.278ZM244.138 357.216C247.149 357.216 249.663 356.364 251.68 354.659C253.697 352.926 255.217 350.568 256.24 347.585C257.291 344.602 257.817 341.207 257.817 337.401C257.817 333.594 257.291 330.199 256.24 327.216C255.217 324.233 253.697 321.875 251.68 320.142C249.663 318.409 247.149 317.543 244.138 317.543C241.098 317.543 238.541 318.409 236.467 320.142C234.422 321.875 232.874 324.233 231.822 327.216C230.8 330.199 230.288 333.594 230.288 337.401C230.288 341.207 230.8 344.602 231.822 347.585C232.874 350.568 234.422 352.926 236.467 354.659C238.541 356.364 241.098 357.216 244.138 357.216ZM288.072 370V304.545H305.374V316.094H306.141C307.504 312.259 309.777 309.233 312.959 307.017C316.141 304.801 319.947 303.693 324.379 303.693C328.868 303.693 332.689 304.815 335.842 307.06C338.996 309.276 341.098 312.287 342.149 316.094H342.831C344.166 312.344 346.581 309.347 350.075 307.102C353.598 304.83 357.76 303.693 362.561 303.693C368.669 303.693 373.626 305.639 377.433 309.531C381.268 313.395 383.186 318.878 383.186 325.98V370H365.075V329.56C365.075 325.923 364.109 323.196 362.178 321.378C360.246 319.56 357.831 318.651 354.933 318.651C351.638 318.651 349.067 319.702 347.22 321.804C345.374 323.878 344.45 326.619 344.45 330.028V370H326.851V329.176C326.851 325.966 325.928 323.409 324.081 321.506C322.263 319.602 319.862 318.651 316.879 318.651C314.862 318.651 313.044 319.162 311.425 320.185C309.834 321.179 308.57 322.585 307.632 324.403C306.695 326.193 306.226 328.295 306.226 330.71V370H288.072ZM397.526 394.545V304.545H415.423V315.54H416.233C417.028 313.778 418.179 311.989 419.685 310.17C421.219 308.324 423.207 306.79 425.651 305.568C428.122 304.318 431.19 303.693 434.855 303.693C439.628 303.693 444.031 304.943 448.065 307.443C452.099 309.915 455.324 313.651 457.739 318.651C460.153 323.622 461.361 329.858 461.361 337.358C461.361 344.659 460.182 350.824 457.824 355.852C455.494 360.852 452.313 364.645 448.278 367.23C444.273 369.787 439.784 371.065 434.812 371.065C431.29 371.065 428.293 370.483 425.821 369.318C423.378 368.153 421.375 366.69 419.812 364.929C418.25 363.139 417.057 361.335 416.233 359.517H415.679V394.545H397.526ZM415.295 337.273C415.295 341.165 415.835 344.56 416.915 347.457C417.994 350.355 419.557 352.614 421.602 354.233C423.648 355.824 426.134 356.619 429.06 356.619C432.014 356.619 434.514 355.81 436.56 354.19C438.605 352.543 440.153 350.27 441.205 347.372C442.284 344.446 442.824 341.08 442.824 337.273C442.824 333.494 442.298 330.17 441.247 327.301C440.196 324.432 438.648 322.187 436.602 320.568C434.557 318.949 432.043 318.139 429.06 318.139C426.105 318.139 423.605 318.92 421.56 320.483C419.543 322.045 417.994 324.261 416.915 327.131C415.835 330 415.295 333.381 415.295 337.273ZM515.438 342.131V304.545H533.591V370H516.162V358.111H515.48C514.003 361.946 511.545 365.028 508.108 367.358C504.699 369.687 500.537 370.852 495.622 370.852C491.247 370.852 487.398 369.858 484.074 367.869C480.75 365.881 478.151 363.054 476.276 359.389C474.429 355.724 473.491 351.335 473.463 346.222V304.545H491.616V342.983C491.645 346.847 492.682 349.901 494.727 352.145C496.773 354.389 499.514 355.511 502.952 355.511C505.139 355.511 507.185 355.014 509.088 354.02C510.991 352.997 512.526 351.491 513.69 349.503C514.884 347.514 515.466 345.057 515.438 342.131ZM582.927 304.545V318.182H543.509V304.545H582.927ZM552.458 288.864H570.612V349.886C570.612 351.562 570.867 352.869 571.379 353.807C571.89 354.716 572.6 355.355 573.509 355.724C574.447 356.094 575.526 356.278 576.748 356.278C577.6 356.278 578.452 356.207 579.305 356.065C580.157 355.895 580.81 355.767 581.265 355.682L584.12 369.19C583.211 369.474 581.933 369.801 580.285 370.17C578.637 370.568 576.634 370.81 574.276 370.895C569.901 371.065 566.066 370.483 562.771 369.148C559.504 367.812 556.961 365.739 555.143 362.926C553.325 360.114 552.43 356.562 552.458 352.273V288.864ZM613.417 371.236C609.241 371.236 605.519 370.511 602.252 369.062C598.985 367.585 596.4 365.412 594.496 362.543C592.621 359.645 591.684 356.037 591.684 351.719C591.684 348.082 592.352 345.028 593.687 342.557C595.022 340.085 596.84 338.097 599.141 336.591C601.442 335.085 604.056 333.949 606.982 333.182C609.937 332.415 613.033 331.875 616.272 331.562C620.079 331.165 623.147 330.795 625.477 330.455C627.806 330.085 629.496 329.545 630.548 328.835C631.599 328.125 632.124 327.074 632.124 325.682V325.426C632.124 322.727 631.272 320.639 629.567 319.162C627.891 317.685 625.505 316.946 622.408 316.946C619.141 316.946 616.542 317.67 614.61 319.119C612.678 320.54 611.4 322.33 610.775 324.489L593.985 323.125C594.837 319.148 596.513 315.71 599.013 312.812C601.513 309.886 604.738 307.642 608.687 306.08C612.664 304.489 617.266 303.693 622.494 303.693C626.13 303.693 629.61 304.119 632.934 304.972C636.286 305.824 639.255 307.145 641.84 308.935C644.454 310.724 646.513 313.026 648.019 315.838C649.525 318.622 650.278 321.96 650.278 325.852V370H633.062V360.923H632.55C631.499 362.969 630.093 364.773 628.332 366.335C626.57 367.869 624.454 369.077 621.982 369.957C619.511 370.81 616.656 371.236 613.417 371.236ZM618.616 358.707C621.286 358.707 623.644 358.182 625.69 357.131C627.735 356.051 629.34 354.602 630.505 352.784C631.67 350.966 632.252 348.906 632.252 346.605V339.659C631.684 340.028 630.903 340.369 629.908 340.682C628.942 340.966 627.849 341.236 626.627 341.491C625.406 341.719 624.184 341.932 622.962 342.131C621.741 342.301 620.633 342.457 619.638 342.599C617.508 342.912 615.647 343.409 614.056 344.091C612.465 344.773 611.229 345.696 610.349 346.861C609.468 347.997 609.028 349.418 609.028 351.122C609.028 353.594 609.923 355.483 611.712 356.79C613.531 358.068 615.832 358.707 618.616 358.707ZM693.935 371.278C687.231 371.278 681.464 369.858 676.634 367.017C671.833 364.148 668.14 360.17 665.555 355.085C662.998 350 661.719 344.148 661.719 337.528C661.719 330.824 663.012 324.943 665.597 319.886C668.211 314.801 671.918 310.838 676.719 307.997C681.521 305.128 687.231 303.693 693.85 303.693C699.56 303.693 704.56 304.73 708.85 306.804C713.14 308.878 716.535 311.79 719.035 315.54C721.535 319.29 722.913 323.693 723.168 328.75H706.038C705.555 325.483 704.276 322.855 702.202 320.866C700.157 318.849 697.472 317.841 694.148 317.841C691.336 317.841 688.879 318.608 686.776 320.142C684.702 321.648 683.083 323.849 681.918 326.747C680.754 329.645 680.171 333.153 680.171 337.273C680.171 341.449 680.739 345 681.876 347.926C683.04 350.852 684.674 353.082 686.776 354.616C688.879 356.151 691.336 356.918 694.148 356.918C696.222 356.918 698.083 356.491 699.731 355.639C701.407 354.787 702.785 353.551 703.864 351.932C704.972 350.284 705.697 348.31 706.038 346.009H723.168C722.884 351.009 721.521 355.412 719.077 359.219C716.663 362.997 713.325 365.952 709.063 368.082C704.802 370.213 699.759 371.278 693.935 371.278ZM734.791 370V304.545H752.945V370H734.791ZM743.911 296.108C741.212 296.108 738.896 295.213 736.964 293.423C735.061 291.605 734.109 289.432 734.109 286.903C734.109 284.403 735.061 282.259 736.964 280.469C738.896 278.651 741.212 277.741 743.911 277.741C746.609 277.741 748.911 278.651 750.814 280.469C752.746 282.259 753.712 284.403 753.712 286.903C753.712 289.432 752.746 291.605 750.814 293.423C748.911 295.213 746.609 296.108 743.911 296.108ZM797.06 371.278C790.441 371.278 784.717 369.872 779.887 367.06C775.086 364.219 771.379 360.27 768.765 355.213C766.151 350.128 764.844 344.233 764.844 337.528C764.844 330.767 766.151 324.858 768.765 319.801C771.379 314.716 775.086 310.767 779.887 307.955C784.717 305.114 790.441 303.693 797.06 303.693C803.68 303.693 809.39 305.114 814.191 307.955C819.021 310.767 822.742 314.716 825.356 319.801C827.969 324.858 829.276 330.767 829.276 337.528C829.276 344.233 827.969 350.128 825.356 355.213C822.742 360.27 819.021 364.219 814.191 367.06C809.39 369.872 803.68 371.278 797.06 371.278ZM797.146 357.216C800.157 357.216 802.671 356.364 804.688 354.659C806.705 352.926 808.225 350.568 809.248 347.585C810.299 344.602 810.825 341.207 810.825 337.401C810.825 333.594 810.299 330.199 809.248 327.216C808.225 324.233 806.705 321.875 804.688 320.142C802.671 318.409 800.157 317.543 797.146 317.543C794.106 317.543 791.549 318.409 789.475 320.142C787.43 321.875 785.881 324.233 784.83 327.216C783.808 330.199 783.296 333.594 783.296 337.401C783.296 341.207 783.808 344.602 784.83 347.585C785.881 350.568 787.43 352.926 789.475 354.659C791.549 356.364 794.106 357.216 797.146 357.216ZM859.234 332.159V370H841.08V304.545H858.381V316.094H859.148C860.597 312.287 863.026 309.276 866.435 307.06C869.844 304.815 873.978 303.693 878.836 303.693C883.381 303.693 887.344 304.688 890.725 306.676C894.106 308.665 896.734 311.506 898.609 315.199C900.484 318.864 901.421 323.239 901.421 328.324V370H883.268V331.562C883.296 327.557 882.273 324.432 880.2 322.188C878.126 319.915 875.271 318.778 871.634 318.778C869.191 318.778 867.032 319.304 865.157 320.355C863.31 321.406 861.862 322.94 860.81 324.957C859.788 326.946 859.262 329.347 859.234 332.159ZM934.393 371.236C930.217 371.236 926.496 370.511 923.229 369.062C919.962 367.585 917.376 365.412 915.473 362.543C913.598 359.645 912.661 356.037 912.661 351.719C912.661 348.082 913.328 345.028 914.663 342.557C915.999 340.085 917.817 338.097 920.118 336.591C922.419 335.085 925.033 333.949 927.959 333.182C930.913 332.415 934.01 331.875 937.249 331.562C941.055 331.165 944.124 330.795 946.453 330.455C948.783 330.085 950.473 329.545 951.524 328.835C952.575 328.125 953.101 327.074 953.101 325.682V325.426C953.101 322.727 952.249 320.639 950.544 319.162C948.868 317.685 946.482 316.946 943.385 316.946C940.118 316.946 937.518 317.67 935.587 319.119C933.655 320.54 932.376 322.33 931.751 324.489L914.962 323.125C915.814 319.148 917.49 315.71 919.99 312.812C922.49 309.886 925.714 307.642 929.663 306.08C933.641 304.489 938.243 303.693 943.47 303.693C947.107 303.693 950.587 304.119 953.911 304.972C957.263 305.824 960.232 307.145 962.817 308.935C965.43 310.724 967.49 313.026 968.996 315.838C970.501 318.622 971.254 321.96 971.254 325.852V370H954.038V360.923H953.527C952.476 362.969 951.07 364.773 949.308 366.335C947.547 367.869 945.43 369.077 942.959 369.957C940.487 370.81 937.632 371.236 934.393 371.236ZM939.592 358.707C942.263 358.707 944.621 358.182 946.666 357.131C948.712 356.051 950.317 354.602 951.482 352.784C952.646 350.966 953.229 348.906 953.229 346.605V339.659C952.661 340.028 951.879 340.369 950.885 340.682C949.919 340.966 948.825 341.236 947.604 341.491C946.382 341.719 945.161 341.932 943.939 342.131C942.717 342.301 941.609 342.457 940.615 342.599C938.484 342.912 936.624 343.409 935.033 344.091C933.442 344.773 932.206 345.696 931.325 346.861C930.445 347.997 930.004 349.418 930.004 351.122C930.004 353.594 930.899 355.483 932.689 356.79C934.507 358.068 936.808 358.707 939.592 358.707ZM1003.49 282.727V370H985.338V282.727H1003.49Z" fill="white"/>
</svg>
